<?xml version="1.0" standalone="no"?>
<!DOCTYPE svg PUBLIC "-//W3C//DTD SVG 20010904//EN"
 "http://www.w3.org/TR/2001/REC-SVG-20010904/DTD/svg10.dtd">
<svg version="1.0" xmlns="http://www.w3.org/2000/svg"
 width="1280.000000pt" height="1231.000000pt" viewBox="0 0 1280.000000 1231.000000"
 preserveAspectRatio="xMidYMid meet">
<g transform="translate(0.000000,1231.000000) scale(0.100000,-0.100000)"
fill="#00356B" stroke="none">
<path d="M2737 11643 c-3 -5 -80 -361 -171 -793 -92 -432 -169 -793 -172 -802
-7 -24 -15 -23 -98 17 -123 59 -212 78 -361 78 -112 0 -143 -4 -218 -27 -157
-47 -262 -112 -373 -228 -159 -168 -233 -368 -221 -603 7 -133 25 -202 82
-320 138 -284 417 -455 741 -455 102 0 114 -2 114 -17 0 -10 -73 -361 -162
-781 -96 -455 -158 -766 -152 -771 5 -4 310 -72 679 -150 368 -78 673 -145
678 -150 4 -4 -10 -41 -32 -82 -22 -41 -52 -114 -67 -164 -23 -77 -27 -109
-28 -220 -1 -170 31 -288 115 -433 45 -76 199 -230 274 -274 426 -247 956 -89
1164 345 61 127 75 191 77 357 2 119 5 146 17 148 8 2 313 -60 677 -137 364
-78 667 -141 674 -141 8 0 66 256 174 768 90 422 163 769 162 772 0 3 -51 6
-113 6 -230 3 -442 96 -598 260 -96 102 -147 189 -195 334 -26 79 -28 97 -28
240 0 143 2 161 28 240 52 155 117 260 228 366 160 154 345 227 573 228 139 0
244 -23 360 -79 39 -19 73 -31 77 -27 6 7 325 1498 334 1567 l6 40 -659 139
c-362 77 -665 141 -673 143 -13 3 -15 -15 -16 -119 -1 -144 -18 -223 -75 -346
-89 -194 -218 -322 -412 -412 -242 -112 -502 -103 -746 25 -195 103 -352 305
-412 531 -50 189 -14 453 83 612 11 18 18 35 16 38 -6 5 -1312 284 -1333 284
-7 0 -16 -3 -18 -7z"/>
<path d="M10070 10854 c-168 -33 -318 -106 -427 -208 -179 -167 -263 -356
-267 -598 -1 -65 -5 -120 -7 -123 -3 -3 -353 72 -779 166 -425 94 -776 167
-781 162 -4 -4 -74 -309 -154 -678 -81 -368 -151 -673 -154 -678 -4 -4 -50 15
-103 42 -138 70 -212 86 -388 85 -136 0 -151 -2 -240 -33 -138 -47 -220 -99
-331 -211 -86 -86 -103 -108 -147 -201 -69 -143 -86 -216 -86 -369 0 -166 32
-286 115 -428 44 -73 198 -227 271 -271 143 -83 254 -113 432 -116 77 -1 141
-6 143 -11 1 -5 -64 -313 -147 -684 -82 -371 -147 -676 -145 -679 3 -2 359
-82 792 -178 433 -95 789 -176 792 -178 2 -3 -5 -22 -18 -43 -37 -62 -70 -140
-93 -220 -32 -110 -32 -305 0 -415 85 -298 318 -516 618 -579 249 -51 516 23
700 195 87 81 129 137 177 233 61 121 79 200 82 358 1 80 6 141 12 143 7 3
1457 -313 1620 -352 17 -4 24 0 28 17 47 205 285 1297 285 1310 0 16 -10 18
-94 18 -399 0 -731 256 -827 639 -29 115 -23 329 11 436 96 302 336 519 640
581 63 12 112 15 199 11 137 -7 205 -23 324 -79 48 -23 89 -39 92 -36 6 6 295
1310 295 1331 0 9 -234 65 -802 190 -441 97 -806 181 -810 185 -5 5 10 47 32
94 62 134 83 237 77 388 -5 147 -22 213 -81 335 -52 105 -129 202 -218 275
-71 58 -214 131 -303 155 -59 16 -285 28 -335 19z"/>
</g>
</svg>
